<svg id="iconfinder_instagram_313477" xmlns="http://www.w3.org/2000/svg" width="60.53" height="60.531" viewBox="0 0 60.53 60.531">
  <defs>
    <style>
      .cls-1, .cls-2 {
        fill: #666;
      }

      .cls-2 {
        fill-rule: evenodd;
      }
    </style>
  </defs>
  <path id="Caminho_317" data-name="Caminho 317" class="cls-1" d="M45.765,16.5A30.265,30.265,0,1,0,76.03,46.765,30.265,30.265,0,0,0,45.765,16.5ZM65.823,66.823a28.366,28.366,0,1,1,8.308-20.058A28.18,28.18,0,0,1,65.823,66.823Z" transform="translate(-15.5 -16.5)"/>
  <path id="Caminho_318" data-name="Caminho 318" class="cls-2" d="M146.218,142.5h21.275a3.6,3.6,0,0,1,3.625,3.618v21.276a3.687,3.687,0,0,1-3.625,3.725H146.218a3.767,3.767,0,0,1-3.718-3.725V146.118a3.676,3.676,0,0,1,3.718-3.618Zm17.177,3.166a1.239,1.239,0,0,0-1.267,1.247V150a1.234,1.234,0,0,0,1.267,1.24h3.235a1.281,1.281,0,0,0,1.323-1.24v-3.085a1.287,1.287,0,0,0-1.323-1.247Zm4.558,8.864h-2.539A8.357,8.357,0,0,1,165.78,157a8.9,8.9,0,0,1-17.794,0,8.324,8.324,0,0,1,.367-2.463h-2.688v12.11a1.236,1.236,0,0,0,1.2,1.187h19.932a1.2,1.2,0,0,0,1.158-1.187V154.53Zm-11.07-3.406a5.573,5.573,0,1,0,5.749,5.57A5.661,5.661,0,0,0,156.883,151.124Z" transform="translate(-126.418 -126.544)"/>
</svg>
