<svg id="iconfinder_pinterest_313473" xmlns="http://www.w3.org/2000/svg" width="60.53" height="60.531" viewBox="0 0 60.53 60.531">
  <defs>
    <style>
      .cls-1 {
        fill: #666;
      }
    </style>
  </defs>
  <path id="Caminho_322" data-name="Caminho 322" class="cls-1" d="M45.765,16.5A30.265,30.265,0,1,0,76.03,46.765,30.265,30.265,0,0,0,45.765,16.5ZM65.823,66.823a28.366,28.366,0,1,1,8.308-20.058A28.18,28.18,0,0,1,65.823,66.823Z" transform="translate(-15.5 -16.5)"/>
  <path id="Caminho_323" data-name="Caminho 323" class="cls-1" d="M171.782,145.567c-8.531,0-12.833,6.116-12.833,11.218,0,3.088,1.169,5.835,3.677,6.858a.618.618,0,0,0,.9-.449c.083-.314.279-1.109.367-1.441a.872.872,0,0,0-.259-1,5.175,5.175,0,0,1-1.186-3.521,8.5,8.5,0,0,1,8.841-8.6c4.822,0,7.471,2.946,7.471,6.88,0,5.178-2.291,9.548-5.692,9.548a2.779,2.779,0,0,1-2.835-3.459c.539-2.275,1.585-4.729,1.585-6.372a2.4,2.4,0,0,0-2.421-2.7c-1.92,0-3.463,1.987-3.463,4.647a6.91,6.91,0,0,0,.573,2.842s-1.965,8.327-2.31,9.785a20.14,20.14,0,0,0-.053,6.823.239.239,0,0,0,.427.1,19.172,19.172,0,0,0,3.241-5.877c.22-.8,1.263-4.935,1.263-4.935a5.146,5.146,0,0,0,4.387,2.237c5.771,0,9.688-5.262,9.688-12.3C183.149,150.527,178.638,145.567,171.782,145.567Z" transform="translate(-140.784 -129.223)"/>
</svg>
