<svg id="iconfinder_twitter_313466" xmlns="http://www.w3.org/2000/svg" width="60.53" height="60.531" viewBox="0 0 60.53 60.531">
  <defs>
    <style>
      .cls-1 {
        fill: #666;
      }
    </style>
  </defs>
  <path id="Caminho_324" data-name="Caminho 324" class="cls-1" d="M160.868,153.274a15.039,15.039,0,0,1-4.342,1.19,7.574,7.574,0,0,0,3.324-4.183,15.133,15.133,0,0,1-4.8,1.836,7.566,7.566,0,0,0-12.881,6.895,21.464,21.464,0,0,1-15.582-7.9,7.569,7.569,0,0,0,2.34,10.093,7.538,7.538,0,0,1-3.424-.946c0,.031,0,.064,0,.1a7.566,7.566,0,0,0,6.065,7.412,7.6,7.6,0,0,1-1.992.265,7.5,7.5,0,0,1-1.423-.136,7.568,7.568,0,0,0,7.062,5.25,15.253,15.253,0,0,1-11.192,3.13,21.392,21.392,0,0,0,11.588,3.4c13.906,0,21.509-11.519,21.509-21.509q0-.492-.021-.979A15.314,15.314,0,0,0,160.868,153.274Z" transform="translate(-110.279 -132.858)"/>
  <path id="Caminho_325" data-name="Caminho 325" class="cls-1" d="M45.765,16.5A30.265,30.265,0,1,0,76.03,46.765,30.265,30.265,0,0,0,45.765,16.5ZM65.823,66.823a28.366,28.366,0,1,1,8.308-20.058A28.18,28.18,0,0,1,65.823,66.823Z" transform="translate(-15.5 -16.5)"/>
</svg>
