<svg id="iconfinder_youtube_313461" xmlns="http://www.w3.org/2000/svg" width="60.53" height="60.531" viewBox="0 0 60.53 60.531">
  <defs>
    <style>
      .cls-1 {
        fill: #666;
      }
    </style>
  </defs>
  <path id="Caminho_326" data-name="Caminho 326" class="cls-1" d="M166.639,264.508v-4.442a5.516,5.516,0,0,0-5.472-5.566H141.974a5.517,5.517,0,0,0-5.474,5.566v4.442a5.52,5.52,0,0,0,5.474,5.568h19.192A5.52,5.52,0,0,0,166.639,264.508ZM146,258.047h-1.773v8.864h-1.773v-8.864h-1.773v-1.52H146Zm5.065,8.864h-1.52v-.885a3.032,3.032,0,0,1-.895.71,1.894,1.894,0,0,1-.9.242,1.015,1.015,0,0,1-.827-.34,1.649,1.649,0,0,1-.3-1.026v-6.425h1.52v5.9a.633.633,0,0,0,.124.391.407.407,0,0,0,.328.121.921.921,0,0,0,.433-.168,4.188,4.188,0,0,0,.48-.416h.027v-5.825h1.52v7.725Zm5.572-1.626a1.911,1.911,0,0,1-.379,1.247,1.285,1.285,0,0,1-1.047.432,1.914,1.914,0,0,1-.818-.166,2.776,2.776,0,0,1-.668-.521v.633H152.2V256.527h1.52v3.306a3.382,3.382,0,0,1,.666-.534,1.534,1.534,0,0,1,.711-.182,1.362,1.362,0,0,1,1.129.491,2.257,2.257,0,0,1,.406,1.429v4.248Zm1.354,1.159a2.435,2.435,0,0,1-.594-1.735v-3.441a2.156,2.156,0,0,1,.652-1.618,2.3,2.3,0,0,1,1.676-.627,2.22,2.22,0,0,1,1.642.58,2.309,2.309,0,0,1,.588,1.667v1.97H159.04v1.425a1.756,1.756,0,0,0,.117.841.546.546,0,0,0,.5.23.59.59,0,0,0,.513-.2,1.7,1.7,0,0,0,.134-.874v-.285h1.646v.33a2.454,2.454,0,0,1-.6,1.775,2.315,2.315,0,0,1-1.73.593A2.14,2.14,0,0,1,157.989,266.444Z" transform="translate(-121.177 -224.362)"/>
  <path id="Caminho_327" data-name="Caminho 327" class="cls-1" d="M314.893,301.672a1.147,1.147,0,0,0-.15-.687.58.58,0,0,0-.5-.211.672.672,0,0,0-.555.211,1.11,1.11,0,0,0-.185.687v.714h1.393Z" transform="translate(-275.764 -264.776)"/>
  <path id="Caminho_328" data-name="Caminho 328" class="cls-1" d="M273.161,300.554a.76.76,0,0,0-.336.076,1.507,1.507,0,0,0-.326.234v4.768a1.363,1.363,0,0,0,.373.27.921.921,0,0,0,.375.082.47.47,0,0,0,.4-.162.837.837,0,0,0,.12-.527v-3.953a.934.934,0,0,0-.144-.59A.562.562,0,0,0,273.161,300.554Z" transform="translate(-239.955 -264.583)"/>
  <path id="Caminho_329" data-name="Caminho 329" class="cls-1" d="M185.534,154.9v-4.7l2.3-6.7h-1.971l-1.2,4.559h-.123l-1.259-4.559h-1.954l2.3,6.909V154.9Z" transform="translate(-160.334 -127.418)"/>
  <path id="Caminho_330" data-name="Caminho 330" class="cls-1" d="M284.5,167.5v7.013a1.786,1.786,0,0,0,.289,1.13,1.075,1.075,0,0,0,.895.379,2.145,2.145,0,0,0,.995-.27,2.883,2.883,0,0,0,.987-.784v.89h1.773V167.5h-1.773v6.366a1.8,1.8,0,0,1-.528.457,1.014,1.014,0,0,1-.48.178.475.475,0,0,1-.375-.137.673.673,0,0,1-.136-.432V167.5Z" transform="translate(-250.436 -148.378)"/>
  <path id="Caminho_331" data-name="Caminho 331" class="cls-1" d="M233.5,167.708v4.366a2.258,2.258,0,0,0,.7,1.712,2.577,2.577,0,0,0,1.818.632,2.689,2.689,0,0,0,1.864-.614,2.2,2.2,0,0,0,.685-1.7v-4.354a2.037,2.037,0,0,0-.694-1.579,2.557,2.557,0,0,0-1.76-.612,2.863,2.863,0,0,0-1.874.58,1.971,1.971,0,0,0-.7,1.564Zm1.773-.066a.573.573,0,0,1,.215-.445.78.78,0,0,1,.522-.172.872.872,0,0,1,.563.172.548.548,0,0,1,.22.445v4.594a.708.708,0,0,1-.211.533.793.793,0,0,1-.56.189.681.681,0,0,1-.749-.723v-4.594Z" transform="translate(-205.894 -146.687)"/>
  <path id="Caminho_332" data-name="Caminho 332" class="cls-1" d="M45.765,16.5A30.265,30.265,0,1,0,76.03,46.765,30.265,30.265,0,0,0,45.765,16.5ZM65.823,66.823a28.366,28.366,0,1,1,8.308-20.058A28.18,28.18,0,0,1,65.823,66.823Z" transform="translate(-15.5 -16.5)"/>
</svg>
